<?xml version="1.0" encoding="iso-8859-1"?>
<!-- Generator: Adobe Illustrator 19.0.0, SVG Export Plug-In . SVG Version: 6.00 Build 0)  -->
<svg version="1.1" id="Layer_1" xmlns="http://www.w3.org/2000/svg" xmlns:xlink="http://www.w3.org/1999/xlink" x="0px" y="0px"
	 viewBox="0 0 512 512" style="enable-background:new 0 0 512 512;" xml:space="preserve">
<circle style="fill:#BEEBFF;" cx="256" cy="256" r="256"/>
<path style="fill:#D7FA82;" d="M475.699,387.423l-18.371-18.371c-9.191-9.191-23.694-10.354-34.231-2.743L282.483,467.862
	c0,0,11.034,17.655,26.483,38.621C379.704,491.597,439.671,447.519,475.699,387.423z"/>
<path style="fill:#B4EB82;" d="M445.63,427.975l-62.435-62.435c-12.255-12.255-31.592-13.804-45.642-3.657l-134.518,97.152
	c0,0,16.301,26.038,36.988,52.419C245.312,511.779,250.628,512,256,512C331.185,512,398.795,479.586,445.63,427.975z"/>
<path style="fill:#AAD273;" d="M274.649,407.313l34.316,42.894l51.761-94.895c-8.022-0.569-16.241,1.564-23.174,6.571
	L274.649,407.313z"/>
<path style="fill:#C9A391;" d="M256,512c33.982,0,66.388-6.679,96.056-18.702L188.988,330.229
	c-12.255-12.255-31.592-13.804-45.642-3.657l-99.892,72.143C89.423,467.042,167.457,512,256,512z"/>
<g>
	<path style="fill:#D9F3FF;" d="M114.759,220.69h-35.31c-4.875,0-8.828-3.953-8.828-8.828l0,0c0-4.875,3.953-8.828,8.828-8.828
		h35.31c4.875,0,8.828,3.953,8.828,8.828l0,0C123.586,216.737,119.634,220.69,114.759,220.69z"/>
	<path style="fill:#D9F3FF;" d="M397.241,203.034h-26.483c-4.875,0-8.828-3.953-8.828-8.828l0,0c0-4.875,3.953-8.828,8.828-8.828
		h26.483c4.875,0,8.828,3.953,8.828,8.828l0,0C406.069,199.082,402.116,203.034,397.241,203.034z"/>
	<path style="fill:#D9F3FF;" d="M432.552,203.034L432.552,203.034c-4.875,0-8.828-3.953-8.828-8.828l0,0
		c0-4.875,3.953-8.828,8.828-8.828l0,0c4.875,0,8.828,3.953,8.828,8.828l0,0C441.379,199.082,437.427,203.034,432.552,203.034z"/>
	<path style="fill:#D9F3FF;" d="M379.586,326.621h-35.31c-4.875,0-8.828-3.953-8.828-8.828l0,0c0-4.875,3.953-8.828,8.828-8.828
		h35.31c4.875,0,8.828,3.953,8.828,8.828l0,0C388.414,322.668,384.461,326.621,379.586,326.621z"/>
</g>
<path style="fill:#EBF9FF;" d="M326.621,61.793h-35.31c-4.875,0-8.828-3.953-8.828-8.828l0,0c0-4.875,3.953-8.828,8.828-8.828h35.31
	c4.875,0,8.828,3.953,8.828,8.828l0,0C335.448,57.841,331.496,61.793,326.621,61.793z"/>
<g>
	<path style="fill:#D9F3FF;" d="M256,61.793h-70.621c-4.875,0-8.828-3.953-8.828-8.828l0,0c0-4.875,3.953-8.828,8.828-8.828H256
		c4.875,0,8.828,3.953,8.828,8.828l0,0C264.828,57.841,260.875,61.793,256,61.793z"/>
	<path style="fill:#D9F3FF;" d="M123.586,291.31h-35.31c-4.875,0-8.828-3.953-8.828-8.828l0,0c0-4.875,3.953-8.828,8.828-8.828
		h35.31c4.875,0,8.828,3.953,8.828,8.828l0,0C132.414,287.358,128.461,291.31,123.586,291.31z"/>
	<path style="fill:#D9F3FF;" d="M105.931,273.655H61.793c-4.875,0-8.828-3.953-8.828-8.828l0,0c0-4.875,3.953-8.828,8.828-8.828
		h44.138c4.875,0,8.828,3.953,8.828,8.828l0,0C114.759,269.703,110.806,273.655,105.931,273.655z"/>
	<path style="fill:#D9F3FF;" d="M423.724,326.621h-8.828c-4.875,0-8.828-3.953-8.828-8.828l0,0c0-4.875,3.953-8.828,8.828-8.828
		h8.828c4.875,0,8.828,3.953,8.828,8.828l0,0C432.552,322.668,428.599,326.621,423.724,326.621z"/>
	<path style="fill:#D9F3FF;" d="M194.207,79.448h-26.483c-4.875,0-8.828-3.953-8.828-8.828l0,0c0-4.875,3.953-8.828,8.828-8.828
		h26.483c4.875,0,8.828,3.953,8.828,8.828l0,0C203.034,75.496,199.082,79.448,194.207,79.448z"/>
</g>
<g>
	<path style="fill:#EBF9FF;" d="M141.241,203.034h-35.31c-4.875,0-8.828-3.953-8.828-8.828l0,0c0-4.875,3.953-8.828,8.828-8.828
		h35.31c4.875,0,8.828,3.953,8.828,8.828l0,0C150.069,199.082,146.116,203.034,141.241,203.034z"/>
	<path style="fill:#EBF9FF;" d="M397.241,291.31h-35.31c-4.875,0-8.828-3.953-8.828-8.828l0,0c0-4.875,3.953-8.828,8.828-8.828
		h35.31c4.875,0,8.828,3.953,8.828,8.828l0,0C406.069,287.358,402.116,291.31,397.241,291.31z"/>
	<path style="fill:#EBF9FF;" d="M432.552,273.655h-52.966c-4.875,0-8.828-3.953-8.828-8.828l0,0c0-4.875,3.953-8.828,8.828-8.828
		h52.966c4.875,0,8.828,3.953,8.828,8.828l0,0C441.379,269.703,437.427,273.655,432.552,273.655z"/>
	<path style="fill:#EBF9FF;" d="M361.931,79.448h-52.966c-4.875,0-8.828-3.953-8.828-8.828l0,0c0-4.875,3.953-8.828,8.828-8.828
		h52.966c4.875,0,8.828,3.953,8.828,8.828l0,0C370.759,75.496,366.806,79.448,361.931,79.448z"/>
</g>
<g>
	<path style="fill:#FFFFFF;" d="M158.897,141.241h-17.655c-4.875,0-8.828,3.953-8.828,8.828l0,0c0,4.875,3.953,8.828,8.828,8.828
		h35.31L158.897,141.241z"/>
	<path style="fill:#FFFFFF;" d="M353.103,141.241h17.655c4.875,0,8.828,3.953,8.828,8.828l0,0c0,4.875-3.953,8.828-8.828,8.828
		h-35.31L353.103,141.241z"/>
</g>
<polygon style="fill:#B4B4AF;" points="291.31,344.276 229.517,344.276 229.517,258.207 291.31,311.172 "/>
<polygon style="fill:#D2D2CD;" points="229.517,264.828 291.31,317.793 291.31,274.759 229.517,229.517 "/>
<polygon style="fill:#F0F0EB;" points="353.103,141.241 317.793,141.241 291.31,123.586 256,123.586 220.69,123.586 
	194.207,141.241 158.897,141.241 176.552,176.552 220.69,176.552 220.69,229.517 300.138,291.31 300.138,176.552 335.448,176.552 
	"/>
<path style="fill:#FFFFFF;" d="M273.655,123.586v-22.069c0-7.313-5.929-13.241-13.241-13.241c-7.313,0-13.241,5.929-13.241,13.241
	v22.069H220.69l-26.483,17.655c0,0,35.31,52.966,88.276,44.138l1.103-8.828l6.621-52.966H273.655z"/>
<polygon style="fill:#E1E1DC;" points="300.138,291.31 300.138,129.472 291.31,123.586 273.655,123.586 273.655,270.712 "/>
<path style="fill:#F0F0EB;" d="M308.966,353.103h-97.103c-4.875,0-8.828-3.953-8.828-8.828l0,0c0-4.875,3.953-8.828,8.828-8.828
	h97.103c4.875,0,8.828,3.953,8.828,8.828l0,0C317.793,349.151,313.841,353.103,308.966,353.103z"/>
<rect x="211.862" y="353.103" style="fill:#D2D2CD;" width="97.103" height="70.621"/>
<path style="fill:#B4B4AF;" d="M132.414,480.204C169.059,500.448,211.174,512,256,512s86.941-11.552,123.586-31.796v-56.48H132.414
	V480.204z"/>
<path style="fill:#B98C78;" d="M154.061,321.369c-3.754,1.105-7.389,2.801-10.716,5.203l-99.892,72.143
	c13.996,20.803,30.998,39.401,50.33,55.262L154.061,321.369z"/>
<g>
</g>
<g>
</g>
<g>
</g>
<g>
</g>
<g>
</g>
<g>
</g>
<g>
</g>
<g>
</g>
<g>
</g>
<g>
</g>
<g>
</g>
<g>
</g>
<g>
</g>
<g>
</g>
<g>
</g>
</svg>
